<svg width="805" height="781" viewBox="0 0 805 781" fill="none" xmlns="http://www.w3.org/2000/svg">
<path d="M0 0H801C803.209 0 805 1.79086 805 4V777C805 779.209 803.209 781 801 781H0V0Z" fill="#CBE4E8"/>
<path d="M601 407C601 407.555 600.475 408 599.822 408H57.1779C56.5246 408 56 407.555 56 407C56 406.445 56.5246 406 57.1779 406H599.822C600.475 406 601 406.445 601 407Z" fill="#2E2E43"/>
<path d="M488.004 149H168.996C164.587 149 161 146.347 161 143.087V124.913C161 121.653 164.587 119 168.996 119H488.004C492.413 119 496 121.653 496 124.913V143.087C496 146.347 492.413 149 488.004 149Z" fill="white" stroke="#BAB7C9" stroke-width="2" stroke-linecap="round" stroke-linejoin="round"/>
<path d="M488.004 272H168.996C164.587 272 161 268.905 161 265.102V243.898C161 240.095 164.587 237 168.996 237H488.004C492.413 237 496 240.095 496 243.898V265.102C496 268.905 492.413 272 488.004 272Z" fill="white" stroke="#BAB7C9" stroke-width="2" stroke-linecap="round" stroke-linejoin="round"/>
<path d="M261.896 356H167.104C162.635 356 159 353.436 159 350.284V332.716C159 329.564 162.635 327 167.104 327H261.896C266.365 327 270 329.564 270 332.716V350.284C270 353.436 266.365 356 261.896 356Z" fill="#4987FF"/>
<path d="M161 83H232" stroke="#BAB7C9" stroke-width="2" stroke-linecap="round" stroke-linejoin="round"/>
<path d="M161 206H291" stroke="#BAB7C9" stroke-width="2" stroke-linecap="round" stroke-linejoin="round"/>
<path d="M449.587 373.152L438.575 378.787L448.561 391.29L459.573 385.655L449.587 373.152Z" fill="#F1A1A4"/>
<path d="M415 205.477L402.201 209L402 194.105L413.647 194L415 205.477Z" fill="#F1A1A4"/>
<path d="M401.5 197C409.508 197 416 192.299 416 186.5C416 180.701 409.508 176 401.5 176C393.492 176 387 180.701 387 186.5C387 192.299 393.492 197 401.5 197Z" fill="#F1A1A4"/>
<path d="M405.654 184.865C403.195 184.831 401.544 183.076 400.56 181.461C399.575 179.856 398.563 177.999 396.274 177.346C394.399 176.815 391.166 180.528 389.672 179.561C388.116 178.55 389.536 173.271 391.159 172.318C392.782 171.366 395.01 171.162 397.102 171.071C402.23 170.863 407.386 171.114 412.426 171.825C415.536 172.26 418.756 172.932 421.018 174.513C423.891 176.52 424.665 179.575 424.91 182.433C425.168 185.358 424.971 188.424 423.015 191.005C421.052 193.583 416.902 195.502 412.874 194.883C412.446 193.331 412.826 191.74 412.962 190.155C413.098 188.578 412.901 186.876 411.529 185.629C410.157 184.381 407.263 183.908 405.708 185.034" fill="#2F2E43"/>
<path d="M424.152 189.865C425.53 189.352 427.177 188.918 428.889 189.013C430.742 189.112 432.319 189.865 432.812 190.759C433.306 191.653 432.793 192.642 431.671 193.382C430.549 194.123 428.863 194.614 427.068 194.866C426.03 195.013 424.895 195.074 423.895 194.866C422.427 194.56 421.62 193.638 422.177 192.894" fill="#2F2E43"/>
<path d="M371.229 295.497C370.342 299.173 372.11 302.514 375.189 302.952C378.262 303.391 381.478 300.761 382.372 297.085C382.757 295.62 382.672 294.104 382.124 292.666L393 235.042L378.347 233L373.526 291.449C372.345 292.645 371.555 294.032 371.229 295.512L371.229 295.497Z" fill="#F1A1A4"/>
<path d="M400.43 201L390.747 201.087C383.911 201.979 382.095 204.941 380.62 210.387C378.361 218.693 375.475 229.763 376.082 229.916C377.051 230.171 393.614 236.269 402 234.76L400.437 201L400.43 201Z" fill="#4987FF"/>
<path d="M412.558 384.022L399.488 384.139L399.695 398.977L412.765 398.86L412.558 384.022Z" fill="#F1A1A4"/>
<path d="M387.477 407.995C386.134 408.009 384.953 407.995 384.053 407.941C380.667 407.747 377.425 405.967 375.782 404.928C375.045 404.463 374.801 403.704 375.17 403.054C375.432 402.589 375.969 402.232 376.644 402.083L385.546 400.168L399.896 393L400.059 393.208C400.121 393.285 401.57 395.123 402.064 396.369C402.251 396.844 402.214 397.237 401.939 397.544C401.752 397.756 401.489 397.882 401.277 397.959C401.539 398.153 402.364 398.551 404.9 398.822C408.586 399.219 409.329 396.446 409.354 396.329L409.379 396.234L409.486 396.18C411.229 395.344 412.297 394.969 412.672 395.046C412.909 395.091 413.29 395.177 414.452 402.693C414.558 402.927 415.32 404.653 414.846 406.315C414.333 408.122 403.432 407.584 401.258 407.462C401.196 407.467 393.049 407.954 387.464 407.995H387.483L387.477 407.995Z" fill="#2F2E43"/>
<path d="M436.748 405.999C435.261 406.015 433.892 405.87 432.915 405.731C431.957 405.591 431.198 404.942 431.036 404.116C430.911 403.52 431.117 402.925 431.571 402.474L437.693 396.498L444.587 382.755L444.88 382.889C444.986 382.937 447.549 384.133 448.881 385.163C449.385 385.555 449.64 385.968 449.64 386.408C449.64 386.708 449.509 386.955 449.378 387.121C449.746 387.197 450.729 387.218 453.068 386.344C456.472 385.067 455.078 381.934 455.016 381.811L454.966 381.703L455.022 381.607C455.887 379.976 456.521 379.107 456.889 379.01C457.125 378.957 457.505 378.855 463.969 385.904C464.231 386.091 466.135 387.481 466.943 389.369C467.821 391.424 458.233 395.833 456.291 396.697C456.235 396.74 446.211 403.161 442.092 405.001C440.456 405.73 438.508 405.972 436.735 405.983L436.754 405.999L436.748 405.999Z" fill="#2F2E43"/>
<path d="M420.689 259.015L383.026 259.336L380 286.363L396.393 386L415.621 385.832L407.104 328.279L439.045 380.037L456 370.669L430.944 322.307C430.944 322.307 439.038 279.922 432.048 269.443C425.063 258.964 420.696 259 420.696 259V259.015L420.689 259.015Z" fill="#2F2E43"/>
<path d="M438 260.486L380 261L396.568 201.229L421.842 201L438 260.486Z" fill="#4987FF"/>
<path d="M444.724 295.303C445.684 299.024 444.06 302.441 441.098 302.938C438.128 303.441 434.944 300.829 433.99 297.108C433.58 295.627 433.618 294.088 434.104 292.618L422 234.334L436.126 232L442.386 291.231C443.561 292.424 444.364 293.822 444.724 295.313V295.303Z" fill="#F1A1A4"/>
<path d="M411.655 201.087L421.771 201C428.932 201.774 430.915 204.696 432.621 210.107C435.22 218.359 438.546 229.349 437.924 229.517C436.913 229.782 419.801 236.166 411 234.812L411.668 201.087L411.655 201.087Z" fill="#4987FF"/>
<path d="M488.004 149H168.996C164.587 149 161 146.347 161 143.087V124.913C161 121.653 164.587 119 168.996 119H488.004C492.413 119 496 121.653 496 124.913V143.087C496 146.347 492.413 149 488.004 149Z" fill="white" stroke="#BAB7C9" stroke-width="2" stroke-linecap="round" stroke-linejoin="round"/>
<path d="M488.004 272H168.996C164.587 272 161 268.905 161 265.102V243.898C161 240.095 164.587 237 168.996 237H488.004C492.413 237 496 240.095 496 243.898V265.102C496 268.905 492.413 272 488.004 272Z" fill="white" stroke="#BAB7C9" stroke-width="2" stroke-linecap="round" stroke-linejoin="round"/>
<path d="M261.896 356H167.104C162.635 356 159 353.436 159 350.284V332.716C159 329.564 162.635 327 167.104 327H261.896C266.365 327 270 329.564 270 332.716V350.284C270 353.436 266.365 356 261.896 356Z" fill="#4987FF"/>
<path d="M161 83H232" stroke="#BAB7C9" stroke-width="2" stroke-linecap="round" stroke-linejoin="round"/>
<path d="M161 206H291" stroke="#BAB7C9" stroke-width="2" stroke-linecap="round" stroke-linejoin="round"/>
<path d="M449.587 373.152L438.575 378.787L448.561 391.29L459.573 385.655L449.587 373.152Z" fill="#F1A1A4"/>
<path d="M415 205.477L402.201 209L402 194.105L413.647 194L415 205.477Z" fill="#F1A1A4"/>
<path d="M401.5 197C409.508 197 416 192.299 416 186.5C416 180.701 409.508 176 401.5 176C393.492 176 387 180.701 387 186.5C387 192.299 393.492 197 401.5 197Z" fill="#F1A1A4"/>
<path d="M405.654 184.865C403.195 184.831 401.544 183.076 400.56 181.461C399.575 179.856 398.563 177.999 396.274 177.346C394.399 176.815 391.166 180.528 389.672 179.561C388.116 178.55 389.536 173.271 391.159 172.318C392.782 171.366 395.01 171.162 397.102 171.071C402.23 170.863 407.386 171.114 412.426 171.825C415.536 172.26 418.756 172.932 421.018 174.513C423.891 176.52 424.665 179.575 424.91 182.433C425.168 185.358 424.971 188.424 423.015 191.005C421.052 193.583 416.902 195.502 412.874 194.883C412.446 193.331 412.826 191.74 412.962 190.155C413.098 188.578 412.901 186.876 411.529 185.629C410.157 184.381 407.263 183.908 405.708 185.034" fill="#2F2E43"/>
<path d="M424.152 189.865C425.53 189.352 427.177 188.918 428.889 189.013C430.742 189.112 432.319 189.865 432.812 190.759C433.306 191.653 432.793 192.642 431.671 193.382C430.549 194.123 428.863 194.614 427.068 194.866C426.03 195.013 424.895 195.074 423.895 194.866C422.427 194.56 421.62 193.638 422.177 192.894" fill="#2F2E43"/>
<path d="M371.229 295.497C370.342 299.173 372.11 302.514 375.189 302.952C378.262 303.391 381.478 300.761 382.372 297.085C382.757 295.62 382.672 294.104 382.124 292.666L393 235.042L378.347 233L373.526 291.449C372.345 292.645 371.555 294.032 371.229 295.512L371.229 295.497Z" fill="#F1A1A4"/>
<path d="M400.43 201L390.747 201.087C383.911 201.979 382.095 204.941 380.62 210.387C378.361 218.693 375.475 229.763 376.082 229.916C377.051 230.171 393.614 236.269 402 234.76L400.437 201L400.43 201Z" fill="#4987FF"/>
<path d="M412.558 384.022L399.488 384.139L399.695 398.977L412.765 398.86L412.558 384.022Z" fill="#F1A1A4"/>
<path d="M387.477 407.995C386.134 408.009 384.953 407.995 384.053 407.941C380.667 407.747 377.425 405.967 375.782 404.928C375.045 404.463 374.801 403.704 375.17 403.054C375.432 402.589 375.969 402.232 376.644 402.083L385.546 400.168L399.896 393L400.059 393.208C400.121 393.285 401.57 395.123 402.064 396.369C402.251 396.844 402.214 397.237 401.939 397.544C401.752 397.756 401.489 397.882 401.277 397.959C401.539 398.153 402.364 398.551 404.9 398.822C408.586 399.219 409.329 396.446 409.354 396.329L409.379 396.234L409.486 396.18C411.229 395.344 412.297 394.969 412.672 395.046C412.909 395.091 413.29 395.177 414.452 402.693C414.558 402.927 415.32 404.653 414.846 406.315C414.333 408.122 403.432 407.584 401.258 407.462C401.196 407.467 393.049 407.954 387.464 407.995H387.483L387.477 407.995Z" fill="#2F2E43"/>
<path d="M436.748 405.999C435.261 406.015 433.892 405.87 432.915 405.731C431.957 405.591 431.198 404.942 431.036 404.116C430.911 403.52 431.117 402.925 431.571 402.474L437.693 396.498L444.587 382.755L444.88 382.889C444.986 382.937 447.549 384.133 448.881 385.163C449.385 385.555 449.64 385.968 449.64 386.408C449.64 386.708 449.509 386.955 449.378 387.121C449.746 387.197 450.729 387.218 453.068 386.344C456.472 385.067 455.078 381.934 455.016 381.811L454.966 381.703L455.022 381.607C455.887 379.976 456.521 379.107 456.889 379.01C457.125 378.957 457.505 378.855 463.969 385.904C464.231 386.091 466.135 387.481 466.943 389.369C467.821 391.424 458.233 395.833 456.291 396.697C456.235 396.74 446.211 403.161 442.092 405.001C440.456 405.73 438.508 405.972 436.735 405.983L436.754 405.999L436.748 405.999Z" fill="#2F2E43"/>
<path d="M438 260.486L380 261L396.568 201.229L421.842 201L438 260.486Z" fill="#4987FF"/>
<path d="M444.724 295.303C445.684 299.024 444.06 302.441 441.098 302.938C438.128 303.441 434.944 300.829 433.99 297.108C433.58 295.627 433.618 294.088 434.104 292.618L422 234.334L436.126 232L442.386 291.231C443.561 292.424 444.364 293.822 444.724 295.313V295.303Z" fill="#F1A1A4"/>
<path d="M411.655 201.087L421.771 201C428.932 201.774 430.915 204.696 432.621 210.107C435.22 218.359 438.546 229.349 437.924 229.517C436.913 229.782 419.801 236.166 411 234.812L411.668 201.087L411.655 201.087Z" fill="#4987FF"/>
</svg>
